<?xml version="1.0" encoding="UTF-8"?>
<svg id="Layer_1" xmlns="http://www.w3.org/2000/svg" viewBox="0 0 1200 643.03">
  <defs>
    <style>
      .cls-1 {
        fill: #6ba0b9;
      }
    </style>
  </defs>
  <path class="cls-1" d="M0,2.98l91.27,7.63,7.82-4.28,23.53-3.8,28.49,3.8,8.23-4.98c1.88-1.14,4.1-1.58,6.26-1.23l38.76,6.21,16.51-2.95,28.07,2.95,37.16,3.8,22.3,5.95c4.01,1.07,8.25.74,12.06-.92l5.46-4.94c2.93-2.65,7.05-3.41,10.7-1.99l4.89,1.91c4.3,0,8.57.79,12.6,2.33l13.72,5.26,17.34,6.33,14.21-1.74c4.27-.52,8.58-.46,12.83.19l2.83,1.93c2.04,1.39,6.49-1.41,8.94-1.64l10.73,1.69c3.79-.72,8.96-4.72,12.76-4.05l16.76,2.94c2.6.46,5.09,1.37,7.38,2.71l13.88,8.11h6.99c2.71,0,5.35.83,7.59,2.38l9.39,6.51,14.41-15.12,16.1,4.64h8.55c3.33,0,6.61.84,9.55,2.44l14.1,7.68,14.53,2.83c1.86.36,3.66.99,5.34,1.87l3.12,1.63c1.18,0,2.35.17,3.48.5l10.32-.06c2.43-.01,4.86.29,7.21.91l14.21,3.71h11.77c6.15,0,10.93,5.48,18.09,3l13.49,4.59h28.49l59.8,4.49h12.44c2.41,0,4.8.53,6.98,1.56l12.79,6.03,21.06-7.62h44.59l45.83,9.28h22.78c7.62,0,15.2,1.1,22.51,3.28l59.98,9.62,15.15,5.42c6.35,2.27,12.16,5.86,17.08,10.55l26.93,1.2c3.23,3.08,7.04,5.47,11.19,7.02l9.79,3.65c4.93,1.84,10.13,2.78,15.38,2.78l93.49,10.21v474.5c0,21.75-17.63,39.38-39.38,39.38H39.38c-21.75,0-39.38-17.63-39.38-39.38V2.98Z"/>
</svg>