<?xml version="1.0" encoding="UTF-8"?>
<svg id="Layer_1" xmlns="http://www.w3.org/2000/svg" viewBox="0 0 1200 840.89">
  <defs>
    <style>
      .cls-1 {
        fill: #003a59;
      }
    </style>
  </defs>
  <path class="cls-1" d="M1200,80.24v721.26c0,21.75-17.63,39.38-39.37,39.38H39.38c-21.75.01-39.38-17.62-39.38-39.36V113.27l16.67-11.32c1.85-1.26,4-1.46,5.96-.58l5.44,2.47c3.8,1.72,10.31-8.99,13.24-12.71l11.34-7.94c4.06-4.35,9.64-5,14.2-1.67l16.82,13.59c2.16,1.74,4.58,2.82,7.09,3.14l16.72,16.15,19.5,7.62c7.93,3.1,26.86,12.4,31.55,3.17l19.52-51.76c.99-1.95,2.46-4.82,4.21-7.27,1.84-2.58,4.92-2.46,6.64.27l15.21,5.87c1.5,1.45,5.84-4.99,7.14-6.75l12.11-16.46c1.14-1.54,2.9-1.8,4.26-.64l13.33,11.54c1.32,1.14,3.06.85,4.13-.7l19.34-20.21c2.21-3.2,6.72-14.77,9.94-14.77h6.36l2.45-2.47c1.42-1.43,3.39-1.33,4.72.26l3.51,4.18,6.7-.49,3.26,5.66,6.7-1.23,1.45,4.67,26.47-20.13,12.31,9.85,7.43,6.16,2.71,6.39,11.41-3.44,9.78,8.12,3.26-13.29,4.35.25,17.39-16.73,9.05.49,5.6,1.24c2.16.48,4.24,1.5,6.14,3l22.67,17.92,16.51,35.82c1.21,2.6,3.87,3.07,5.52.97l23.06-29.41,8.88-2.95,6.52,5.42,12.31.25,3.13-2.81c1.65-1.46,3.74-1.61,5.49-.38l17.1,12.04,48.89,24.18c2.63,1.31,5.59.29,7.44-2.55l13.05-19.98c5.49-8.41,9.74-18.18,12.49-28.79l2.34-9.04,7.66-4.17c2.14-1.16,4.24-2.45,6.3-3.86l11.09-7.62c1.75-1.21,3.69-1.83,5.65-1.83h13.32c2.15,0,4.26.67,6.19,1.95l13.38,8.89,20.1,8.13,16.85,16.98,7.6-.74,8.15,11.57,13.04,4.67,76.45,66.2c.89.54,1.94,1.14,3.14,1.77,7.58,4,21.03,9.19,37.52,6.06,19.42-7.51,41.29-26.68,45.64-33.23l27.43-7.85c2.14-.6,4.35.1,6.1,1.88,7.8,7.94,15.43,8.13,23.16,12.87,3.87-6.08,12.31-29.97,19.92-43.75,4.06-2.6,7.89-4.29,11.23-5.41,7.93-9.8,9.13-18.15,19.56-14.77l23,12.92,17.93-16.61,30.97-15.52,17.79,11.17c2.24,1.4,4.68,2.12,7.14,2.12h6.94c2.46,0,4.71,1.83,5.88,4.78l11.33,19.83,16.12,4.19,32.6,22.15Z"/>
</svg>