<?xml version="1.0" encoding="UTF-8"?>
<svg id="Layer_1" xmlns="http://www.w3.org/2000/svg" viewBox="0 0 1200 798.43">
  <defs>
    <style>
      .cls-1 {
        fill: #004c75;
      }
    </style>
  </defs>
  <path class="cls-1" d="M1200,163.84l-82.27-46.33c-2.97-1.18-5.82-2.7-8.49-4.53l-33.51-22.98c-5.99-3.8-14.43-2.42-17.39-1.1l-31.31,13.97-36.41,18.22c-5.79,2.9-13.29,19.07-18.69,22.72l-32.78,22.16c-2.43,1.34-5.29,1.54-7.87.55l-46.65-17.86-21.25-14.97c-1.66-1.17-3.7-1.62-5.66-1.2-3.82.81-8.49,1.44-13.81,1.41-4.44-.03-8.42-.51-11.81-1.17-2.8-.54-5.69.04-8.12,1.6-12.77,8.19-37.62,26.7-51.81,36.11-1.37.91-3.17.43-3.99-1.04l-14.3-25.78c-1.22-2.21-12.53-12.89-14.95-12.89l-26.35,11.81c-5.08.57-15.16-8.29-18.49-12.38l-18.64-22.84-38.49-63.73h-13.57l-19.16-12.66h-11.98l-15.17-8.44c-7.22.61-11.63.23-17.96.21-8.6-.02-12.02-.28-15.57-2.11-7.19.84-9.77,2.64-16.95,3.48l-44.53-9.18-29.14-12.57c-1.84-.55-3.74-.89-5.65-1.02L429.16.05c-4.63-.32-9.24.89-13.19,3.47l-27.98,45.81-11.18,9.28-9.58,2.53-33-4.98-10.2-2.04c-1.93-.35-3.89.39-5.16,1.96l-17.94,34.15c-11.81.23-23-2.38-39.06,1.68-10.41,2.64-19.63,5.92-27.55,9.28l-12.93-2.21c-2.81-2.67-6.72-2.56-9.3-.28l-3.19,2.81c-5.77-1.77-14.36-5.28-22.87-12.55-4.46-3.81-7.85-7.75-10.38-11.18l-14.37-20.88c-1.56-1.49-3.58-2.31-5.68-2.31h-3.81c-6.79,0-13.39,2.44-18.69,6.93l-23.74,20.07-26.01,12.43c-4.97,2.37-9.42,12.92-13.14,17.13l-6.76,7.63c-1.13,1.27-2.98,1.45-4.3.41l-7.98-6.25c-3.14-.37-6.3.45-8.92,2.31L0,145.27v613.78c0,21.75,17.63,39.38,39.38,39.38h1121.25c21.75,0,39.38-17.63,39.38-39.38V163.84Z"/>
</svg>