<?xml version="1.0" encoding="UTF-8"?>
<svg id="Layer_1" xmlns="http://www.w3.org/2000/svg" viewBox="0 0 1200 652.43">
  <defs>
    <style>
      .cls-1 {
        fill: #97cce4;
      }
    </style>
  </defs>
  <path class="cls-1" d="M1200,48.89l-91.64-32.95-43.29-8.47c-2.5-.51-5.07-.47-7.55.11l-7.63,1.8c-1.92.45-3.92.53-5.87.23l-19.06-2.92-28.35-2.39c-1.1-.09-2.2-.07-3.29.08l-17.38,1.63c-1.56.01-3.11-.28-4.56-.86l-5.32-2.12c-1.56-.11-3.12.18-4.55.85l-1.96.92c-2.51,1.17-5.32,1.5-8.02.95l-29.13-4.68L907.05.01c-2.57-.18-13.59,2.01-16.09,2.66-13.09,2.68-24.21,7.06-32.46,7.02-1.43,0-2.84.33-4.07,1.07-7.03,4.21-14.06,8.42-21.08,12.63-3.26,4.4-5.57,1.51-8.45,1.35l-30.11-1.61-3.75,2.13c-1.25.71-2.74.86-4.11.43l-3.64-1.17c-.84-.27-1.75-.13-2.48.36-4.31,2.89-10.16,2.93-15.13,4.59-11.81,1.12-21.33-1.03-31.99-1.56-1.76-.09-3.54.05-5.27.42-62.02,13.21-86.57,19.87-89.69,22.65-.38.34-2.31,2.27-5.44,3.23-3.44,1.06-4.29-.3-7.02.67-4.12,1.47-4.52,5.38-7.84,5.8-1.95.24-3.66-.87-4.68-1.69-.82-.36-2.09-.76-3.3-.28-1.64.65-1.46,2.23-3.05,3.6-1.38,1.19-3.5,1.3-7.69,1.46-2.98.11-3.8-.06-4.95,0-2.63.14-6.32,1.5-10.73,7.03-51.83,8.79-96.88,5.53-153.64,11.98-38.62,4.39-85.56,18.8-122.14,21.57H116.7l-84.22,15.95L0,124.57v488.49c0,21.75,17.63,39.38,39.38,39.38h1121.25c21.75,0,39.38-17.63,39.38-39.38V48.89Z"/>
</svg>