<?xml version="1.0" encoding="UTF-8"?>
<svg id="Layer_1" xmlns="http://www.w3.org/2000/svg" viewBox="0 0 1200 805.59">
  <defs>
    <style>
      .cls-1 {
        fill: #60b3de;
      }
    </style>
  </defs>
  <path class="cls-1" d="M0,252.12c32.83-10.21,72.22-18.92,108.39-22.78,50.87-5.43,69.61-7.42,104.45-10.81,20.36-2.27,38.29-5.64,53.37-9.13,14.82-3.43,30.1-7.73,45.72-13.09,6.8-2.33,13.41-4.78,19.82-7.31,5.5-5.62,11.01-11.25,16.51-16.87,7.34-6.92,13.01-12.82,16.79-16.87,6.95-7.46,9.21-10.53,14.04-14.34,7.33-5.8,14.65-7.04,19.54-8.52,9.63-4.22,19.27-8.44,28.9-12.66,18.56-8.15,40.15-15.77,64.55-21.16,6.63-1.47,13.46-2.77,20.5-3.87,3.91-.61,7.77-1.15,11.57-1.61,3.01-.37,5.98-.69,8.91-.96,1.54-.15,4.99,1.06,6.92,1.74.44.15.91.12,1.32-.09l3.55-.88c.31-.08,6.22,7.62,6.52,7.74,3.68,1.44,5.82,13.31,9.11,14.43l16.52-2.3c3.5-.49,7.07-.07,10.37,1.21l22.08,8.58c1.48.48,3.09.41,4.52-.21l26.92-11.66c2.39.03,5.06-.14,7.93-.69,6.82-2.11,15.97-8.7,22.48-12.48,5.24-3.04,8.86-6.5,14.41-8.9,1.89-.88,3.99-1.17,6.05-.82,7.46,1.24,18.57-13.14,31.93-16.87,19.42-5.43,28.49-32.32,38.25-37.97,1.82-1.05,3.33-2.57,5.41-2.66,5.49-.23,14.53,1.01,20.03.78l15.96,6.64,31.51-7.43c.99.44,4.06,1.64,7.89.72,3.77-.91,9.36-9.11,10.06-9.95,7.16-1.69,10.66-.07,21.47-5.06,11.99-5.54,27.62-12.95,40.44-15.97l33.78,8.74c1.64,1.51,8.12,15.14,10.11,16.5,15.51,10.64,20.45,23.84,29.78,22.42,2.52,2.28,5.61,4.61,9.32,6.64,14.56,7.99,29.31,6.29,35.92,5.06,17.83,4.78,30.06,15.26,47.89,20.04,3.01,4.76,13.33,1.75,17.75,1.05h.06c3.98-.65,6.09,7.03,7.78,10.76,2.87,6.31,7.71,8.88,10.1,9.52.36.62,4.07,6.71,10.96,7.15,3.8.24,6.67-1.36,7.84-2.11l14.24-5.61c1.52,0,3.02.41,4.34,1.18l45.47,29.95v634.91c0,21.75-17.63,39.38-39.38,39.38H39.38c-21.75,0-39.38-17.63-39.38-39.38V252.12Z"/>
</svg>